<svg version="1.1" id="Layer_1" xmlns="http://www.w3.org/2000/svg" xmlns:xlink="http://www.w3.org/1999/xlink" x="0px" y="0px"
	 width="100%" viewBox="0 0 799 200" enable-background="new 0 0 799 200" xml:space="preserve">
<path fill="#FBFCFD" opacity="1.000000" stroke="none" 
	d="
M799.000000,201.000000 
	C533.644043,201.000000 268.288055,201.000000 2.363391,200.776550 
	C1.595656,200.274124 1.330757,200.089767 1.000000,200.000000 
	C1.000000,134.310699 1.000000,68.621391 1.223330,2.363026 
	C1.725757,1.595282 1.910204,1.330626 2.000000,1.000000 
	C29.689306,1.000000 57.378613,1.000000 85.562218,1.319993 
	C86.667747,2.107671 87.278984,2.575356 88.316803,3.019653 
	C90.161247,3.086530 91.579094,3.176793 93.085297,3.420186 
	C93.449699,3.473664 93.725739,3.374012 94.464279,3.195982 
	C146.958206,3.100415 198.989655,3.083228 251.299225,3.366922 
	C254.144852,3.783064 256.750610,4.194222 259.261169,3.869520 
	C260.280792,3.737648 261.093262,2.004530 262.000000,1.000001 
	C440.689301,1.000000 619.378601,1.000000 798.637817,1.222526 
	C799.406494,1.723302 799.670593,1.908285 800.000000,2.000000 
	C800.000000,67.689308 800.000000,133.378616 799.776550,199.636810 
	C799.273682,200.404282 799.089294,200.669052 799.000000,201.000000 
M180.321426,142.246368 
	C180.321426,142.246368 180.315430,142.325180 179.621460,142.180878 
	C179.123703,143.468369 178.625946,144.755859 177.993698,146.648468 
	C177.384796,147.459473 176.775894,148.270462 175.402130,149.041382 
	C171.865631,152.305573 168.625275,155.725418 169.015869,160.996017 
	C169.015869,160.996017 169.093018,161.066101 168.342896,161.094299 
	C165.135513,162.108505 164.715057,164.518753 165.158081,167.717194 
	C165.158081,167.717194 164.948120,167.983871 164.244873,168.063293 
	C161.861725,172.410172 159.478592,176.757050 157.039093,180.988785 
	C157.039093,180.988785 157.119125,181.089386 156.398621,181.087219 
	C154.366318,184.816711 152.334030,188.546204 150.130737,192.313889 
	C150.130737,192.313889 150.305740,192.322678 149.525528,192.025467 
	C149.005630,190.820160 148.570938,189.568375 147.944946,188.420944 
	C147.103348,186.878326 146.114090,185.416275 145.080933,183.963165 
	C145.080933,183.963165 145.063309,183.848740 144.831421,183.085526 
	C143.297485,182.729614 141.767120,182.084900 140.229019,182.065887 
	C131.912399,181.962997 123.593742,182.043533 115.276062,182.002930 
	C110.330200,181.978806 105.765366,178.563110 103.914215,173.975998 
	C103.439270,172.799103 102.141968,171.954102 100.998505,170.326843 
	C101.003860,169.884872 101.009224,169.442902 101.362022,168.837006 
	C101.422935,168.725449 101.562836,168.554733 101.531197,168.512497 
	C101.388031,168.321320 101.196381,168.166443 100.916237,167.339508 
	C100.986572,166.902527 101.056908,166.465546 101.812195,165.875076 
	C105.428604,156.625809 112.353859,153.250626 122.005608,153.909378 
	C128.273697,154.337219 134.597687,154.080292 140.890549,153.908203 
	C142.312668,153.869324 143.709595,152.908890 145.169998,152.151764 
	C145.169998,152.151764 145.394394,152.117950 146.045715,151.844528 
	C146.553528,150.151535 147.228668,148.488419 147.537445,146.759857 
	C148.423157,141.801727 146.011993,139.032272 140.909409,139.020142 
	C133.106064,139.001587 125.292969,138.772079 117.501930,139.082245 
	C109.400429,139.404785 100.958496,140.030411 95.290596,146.717010 
	C87.044258,156.445511 84.691788,168.766006 90.163025,180.754608 
	C90.609299,181.732483 92.053940,182.254700 93.236290,183.218155 
	C93.236290,183.218155 93.258354,183.522842 93.109734,184.341782 
	C93.755493,188.977432 98.029961,192.470016 103.746994,192.765060 
	C103.746994,192.765060 104.001465,192.956070 104.115616,193.691727 
	C105.517509,194.428024 106.894554,195.747604 108.325218,195.808563 
	C120.015846,196.306610 131.716019,196.592072 143.415527,196.834473 
	C143.963562,196.845810 144.532745,195.837006 145.157028,195.116287 
	C145.157028,195.116287 145.354935,195.121582 146.098419,195.087418 
	C147.840515,195.593796 149.569550,196.151520 151.326843,196.598129 
	C161.705887,199.235764 171.075562,191.949356 170.763565,181.210709 
	C170.763565,181.210709 170.997452,181.009415 171.741531,180.946625 
	C175.985886,179.694931 175.458755,176.041794 175.960907,172.923767 
	C175.960907,172.923767 175.802658,172.885239 176.388306,172.615524 
	C176.477295,172.212219 176.566284,171.808899 176.609055,171.132645 
	C176.609055,171.132645 176.805908,170.938004 177.564972,170.919510 
	C178.633881,168.798370 179.702805,166.677231 180.788879,164.239029 
	C180.788879,164.239029 181.002640,164.004181 181.691620,163.911057 
	C183.648300,162.045898 185.377197,161.366089 187.064056,164.367371 
	C187.530762,165.197693 188.959549,165.487259 190.370239,166.402985 
	C190.586380,166.920303 190.802521,167.437622 190.969727,168.795731 
	C191.302979,171.639984 189.604218,171.882568 187.315399,172.111374 
	C185.514099,172.291443 183.804520,173.389160 182.000198,174.011124 
	C182.000198,174.011124 182.075821,174.053970 181.346634,174.082657 
	C177.917252,176.433395 176.523605,179.531784 177.519592,184.022781 
	C180.753860,184.022781 183.666641,184.051880 186.578644,184.016937 
	C193.388138,183.935242 200.008896,183.907104 203.410065,191.677704 
	C206.333496,198.356827 213.221054,199.772186 220.383102,195.256714 
	C220.383102,195.256714 220.734085,195.204956 221.338989,195.064316 
	C223.152969,192.385071 221.311630,188.977051 217.000000,187.000000 
	C217.000000,187.000000 216.990021,187.012375 217.024857,186.209869 
	C214.525620,181.160919 212.203781,176.011841 209.438980,171.112762 
	C208.347961,169.179489 206.269653,167.803375 204.269974,165.849274 
	C204.093781,165.395752 203.917572,164.942230 203.895706,163.690979 
	C202.914871,162.463440 201.934036,161.235901 200.764862,159.753052 
	C200.764862,159.753052 200.771301,159.435852 200.876999,158.640198 
	C199.500443,156.258469 200.315628,152.301025 195.854660,151.700073 
	C195.854660,151.700073 195.815140,151.346710 195.933029,150.585632 
	C195.013672,149.377167 194.094299,148.168686 192.775421,146.524261 
	C192.448166,145.818634 192.120911,145.113007 191.877655,143.689621 
	C191.252838,143.125992 190.628036,142.562347 189.441452,141.770325 
	C188.631622,141.164658 187.821808,140.559006 186.897980,139.264465 
	C184.358521,136.929184 182.856339,137.901825 181.737061,141.081970 
	C181.737061,141.081970 181.400192,141.180649 180.794418,141.265656 
	C180.613632,141.605179 180.432831,141.944717 180.321426,142.246368 
M227.007202,194.990524 
	C227.007202,194.990524 227.070984,194.906174 227.165451,195.709671 
	C230.881210,197.551163 234.555283,198.105652 238.202774,195.152863 
	C238.202774,195.152863 238.419632,195.137207 239.113007,194.802475 
	C239.407867,193.067780 239.944519,191.334930 239.957809,189.598083 
	C240.036545,179.304367 240.013733,169.009674 239.978180,158.715454 
	C239.969345,156.156479 240.273773,153.908768 243.579544,154.019699 
	C251.674286,154.291290 259.767944,154.600220 267.860168,154.939011 
	C271.741608,155.101517 273.339294,157.382004 273.125427,161.058624 
	C272.793762,166.759079 271.007141,168.914825 266.430023,168.990570 
	C260.952301,169.081207 255.467636,168.894852 249.995712,169.094818 
	C248.637405,169.144470 247.316605,170.220642 245.715286,171.070999 
	C245.715286,171.070999 245.363754,171.150177 244.598068,171.332199 
	C242.342468,174.343231 241.768799,177.260284 244.999390,179.969498 
	C244.999390,179.969498 245.063782,179.919815 245.099411,180.693817 
	C248.812820,183.776245 254.015778,183.943542 257.749115,180.916672 
	C258.489929,180.977295 259.230713,181.037918 260.052368,181.775543 
	C262.774506,184.746704 265.394135,187.822968 268.273773,190.632721 
	C269.298553,191.632614 270.954620,191.985504 272.165771,192.787262 
	C272.165771,192.787262 272.359619,192.684433 272.195038,193.464767 
	C272.342194,193.928635 272.345093,194.563324 272.659637,194.828918 
	C274.879395,196.703308 288.000153,198.129364 290.389893,196.580139 
	C292.261963,195.366486 292.997253,193.830383 289.458160,192.913330 
	C289.160797,192.745850 288.980713,192.494385 288.983459,191.386826 
	C288.720245,188.241196 286.964111,186.861069 283.320282,186.809525 
	C282.530914,185.907288 281.741516,185.005066 280.987732,183.299850 
	C280.663910,181.209625 280.340057,179.119415 280.211914,176.813339 
	C280.211914,176.813339 280.503143,176.804047 281.157776,176.728714 
	C281.456024,176.187744 281.754242,175.646774 282.192017,174.622192 
	C282.436188,174.402832 282.680328,174.183456 283.714203,173.990967 
	C288.344879,172.954971 287.330750,170.026169 286.046478,166.330170 
	C286.200897,165.908157 286.355286,165.486130 287.181396,164.745087 
	C287.444092,161.724808 288.590973,158.422867 287.741669,155.756836 
	C286.721405,152.554108 284.001312,149.892883 281.997559,147.000946 
	C281.997559,147.000946 282.004120,146.981873 282.020233,146.245438 
	C280.998108,142.654907 278.702057,141.166397 274.332886,141.967224 
	C273.916595,141.812805 273.500336,141.658371 272.872803,140.804916 
	C271.281189,140.210876 269.705200,139.150803 268.095490,139.096863 
	C255.716721,138.682144 243.331909,138.402115 230.947144,138.298187 
	C229.962158,138.289917 228.963409,139.920013 227.621765,141.025543 
	C227.621765,141.025543 227.209290,141.114685 226.378845,141.177658 
	C225.938629,146.098450 225.428146,151.015152 225.141190,155.944870 
	C225.102386,156.611496 226.186050,157.343475 226.910568,158.817795 
	C226.861511,159.864197 226.812454,160.910583 226.022293,162.204483 
	C224.797394,167.224792 223.535583,172.246964 226.934479,177.955460 
	C226.876434,182.621918 226.818390,187.288376 226.130386,192.102570 
	C226.451706,193.045258 226.773026,193.987946 227.007202,194.990524 
M566.248962,143.021973 
	C566.331726,149.341125 566.414490,155.660263 566.220886,162.788895 
	C566.312439,164.198608 566.404053,165.608307 566.255859,167.924957 
	C566.301025,176.584076 566.346130,185.243179 566.275330,194.659500 
	C569.466125,194.967590 572.658936,195.449097 575.845703,195.412201 
	C576.373779,195.406067 576.875549,193.135040 577.550476,190.996506 
	C577.506897,175.690384 577.463318,160.384277 577.777710,144.464905 
	C577.274414,140.320984 570.919006,139.006470 566.248962,143.021973 
M328.755646,141.129532 
	C325.344025,141.129532 321.932373,141.129532 318.361450,141.129532 
	C318.361450,159.367844 318.361450,177.108307 318.361450,195.082230 
	C333.835022,195.082230 349.051727,195.082230 364.262360,195.082230 
	C364.262360,191.200394 364.262360,187.662506 364.262360,183.874252 
	C353.858734,183.874252 343.877380,183.954239 333.900085,183.788940 
	C332.384613,183.763824 330.888031,182.600098 329.614319,181.057556 
	C329.457703,168.012711 329.301086,154.967880 328.755646,141.129532 
M704.006897,163.495728 
	C695.697510,163.575287 687.388062,163.654846 678.508850,163.442017 
	C677.719543,164.299332 676.930176,165.156647 675.966187,166.831635 
	C676.038330,168.215744 676.110413,169.599869 676.099304,171.717438 
	C677.408020,171.931671 678.716736,172.145905 680.882690,172.646744 
	C683.579773,172.551987 686.276917,172.457230 689.820374,172.686722 
	C691.793701,172.714874 693.886169,172.351776 695.699707,172.904404 
	C696.976379,173.293427 697.873718,174.927261 698.772156,176.850342 
	C698.821228,178.568939 698.870300,180.287521 698.723633,182.485184 
	C698.760925,182.653610 698.798157,182.822037 698.215820,183.523651 
	C690.476807,183.678314 682.737732,183.832977 674.532471,183.694992 
	C674.354248,183.738602 674.176025,183.782227 673.656982,183.535233 
	C673.363281,183.384369 673.074890,183.393982 672.360718,183.084717 
	C671.569763,182.798782 670.778809,182.512833 669.446472,181.787796 
	C662.978455,176.934479 660.706177,169.892822 663.203796,162.441879 
	C665.334717,156.084808 670.811157,152.563431 678.833130,152.431854 
	C681.496887,152.388153 684.161865,152.418594 686.826294,152.418182 
	C693.420837,152.417130 700.015320,152.417831 706.615723,152.417831 
	C706.615723,148.231430 706.615723,144.810303 706.615723,140.915054 
	C696.346130,140.915054 686.393433,140.743744 676.449158,140.960541 
	C665.268188,141.204315 656.643677,146.160919 652.770142,156.852600 
	C648.871094,167.614517 649.741150,178.098495 658.318604,187.569946 
	C659.152710,188.214996 659.986816,188.860046 661.125244,189.962189 
	C661.754517,190.308136 662.383728,190.654083 663.349182,191.624649 
	C664.912048,192.202225 666.474976,192.779785 668.128357,193.373367 
	C668.128357,193.373367 668.219116,193.388199 668.708069,193.951019 
	C670.142456,194.212051 671.576782,194.473083 673.643433,195.049957 
	C674.106689,195.000992 674.569885,194.952042 675.750793,195.277222 
	C687.079956,195.277222 698.409119,195.277222 709.793213,195.277222 
	C709.793213,190.157745 709.793213,185.572021 710.036865,180.140091 
	C709.957703,178.097229 709.878601,176.054367 710.079773,173.235931 
	C709.987976,172.153290 709.896240,171.070648 710.046082,169.215424 
	C709.968262,168.147659 709.890442,167.079910 710.090942,165.330170 
	C708.362854,164.798721 706.634705,164.267273 704.006897,163.495728 
M672.132568,19.063921 
	C661.696899,19.146822 651.261292,19.229723 639.952209,19.037500 
	C635.360474,19.132929 630.768738,19.228357 625.494873,19.042412 
	C622.585449,18.757507 620.184998,18.994276 621.144714,23.873190 
	C621.123779,26.197786 621.338867,28.553999 621.032532,30.840351 
	C620.408203,35.500267 621.925476,37.233398 626.901184,37.015888 
	C636.183838,36.610104 645.498474,36.812195 654.795532,36.986599 
	C656.283081,37.014503 657.748779,38.212318 659.030823,39.678768 
	C659.026978,64.574471 658.992798,89.470299 659.096497,114.365532 
	C659.102600,115.822403 660.222534,117.274635 661.622986,118.984909 
	C666.416931,118.984909 671.210876,118.984909 676.591797,118.984909 
	C676.591797,91.520958 676.591797,64.463943 676.591797,37.166122 
	C680.440979,36.940502 683.716370,36.748512 687.651855,36.783810 
	C688.104675,36.708103 688.557556,36.632397 689.873169,36.822704 
	C693.585754,36.736282 697.298340,36.649857 701.869080,36.814236 
	C704.241150,36.727592 706.613220,36.640945 709.641052,36.824665 
	C710.095459,36.732059 710.549805,36.639458 711.842896,36.793686 
	C712.597473,36.218586 713.982605,35.668739 714.006775,35.064400 
	C714.199341,30.256359 714.189148,25.436419 714.054688,20.625357 
	C714.042236,20.179705 712.736267,19.770216 711.464355,19.053822 
	C711.058411,19.140024 710.652466,19.226229 709.448669,19.024750 
	C698.226685,19.129646 687.004639,19.234543 675.110779,19.051613 
	C674.398621,19.140203 673.686523,19.228794 672.132568,19.063921 
M208.169708,30.853640 
	C208.268738,47.252811 208.367767,63.651985 208.248917,80.955391 
	C208.323624,86.287003 208.398331,91.618614 208.178818,97.852547 
	C208.157303,103.632851 208.027145,109.416451 208.201797,115.190819 
	C208.238739,116.412018 209.390549,117.599495 210.945770,118.988983 
	C239.286850,118.919510 267.627930,118.850037 296.752441,118.798447 
	C297.135071,113.141533 297.517700,107.484627 297.941010,101.226280 
	C294.721680,101.226280 292.447174,101.215714 290.172791,101.227936 
	C270.098328,101.335770 250.023865,101.447632 229.148422,101.347054 
	C227.930771,100.582550 226.713104,99.818047 225.758606,98.144241 
	C225.665665,92.744522 225.572723,87.344803 225.689484,81.037971 
	C225.706131,67.800980 225.648972,54.562943 225.837204,41.328400 
	C225.859558,39.756138 227.222427,38.202950 228.799759,36.920212 
	C230.546432,36.822220 232.293091,36.724224 234.806290,36.841145 
	C235.857605,36.770885 236.908936,36.700626 238.863632,36.917957 
	C255.588669,36.820961 272.313690,36.723965 289.804199,36.844360 
	C290.854736,36.772911 291.905243,36.701462 293.747437,36.913410 
	C296.446289,37.349785 297.776703,36.433559 297.651123,33.469593 
	C297.489716,29.659517 297.791687,25.823298 297.492737,22.029966 
	C297.414368,21.035580 295.852020,20.158150 294.252075,18.999283 
	C293.510223,19.075865 292.768402,19.152447 291.292206,18.922020 
	C290.518066,19.025959 289.743958,19.129900 288.062561,18.999681 
	C281.433899,18.982489 274.805115,18.929321 268.176636,18.954893 
	C248.796967,19.029654 229.417404,19.135818 209.223343,19.133312 
	C208.968048,22.106085 208.712753,25.078857 208.251740,28.673103 
	C208.320404,29.098434 208.389084,29.523767 208.169708,30.853640 
M167.227005,60.963524 
	C165.062393,60.916355 162.897827,60.830574 160.733170,60.828262 
	C146.404373,60.812977 132.075562,60.803993 117.746780,60.818432 
	C112.426819,60.823792 107.777153,59.548462 105.367142,54.221607 
	C101.337585,45.315090 106.956627,36.943069 117.099182,36.908138 
	C138.925354,36.832958 160.751968,36.885414 182.578400,36.885632 
	C184.357742,36.885651 186.137100,36.885635 188.038177,36.885635 
	C188.038177,30.632193 188.038177,24.941990 188.038177,18.941006 
	C165.445114,18.941006 143.301895,18.892273 121.159241,18.984457 
	C117.012604,19.001719 112.831978,19.338734 108.729729,19.949360 
	C96.132858,21.824423 87.684418,30.636255 86.236176,43.113693 
	C84.620659,57.032288 90.580055,68.520554 102.636169,72.974968 
	C107.664124,74.832664 113.305733,75.648842 118.697311,75.784256 
	C133.516678,76.156487 148.351974,75.839966 163.179810,75.950943 
	C171.604614,76.014000 175.875244,79.714630 176.506378,87.038643 
	C177.264206,95.832848 172.122269,101.240097 162.595474,101.275528 
	C139.436447,101.361671 116.276917,101.310585 93.117584,101.314697 
	C91.208839,101.315033 89.300087,101.314743 87.444344,101.314743 
	C87.444344,107.621544 87.444344,113.059723 87.444344,118.639732 
	C88.324600,118.794273 88.952324,119.000519 89.580162,119.000870 
	C114.905258,119.014908 140.236588,119.306831 165.550583,118.775368 
	C171.073776,118.659409 177.149490,116.594086 181.898560,113.679504 
	C192.207275,107.352867 195.944382,93.767487 192.476608,79.764580 
	C189.818924,69.032715 181.973557,62.979603 167.227005,60.963524 
M409.223297,46.499962 
	C409.223297,70.577896 409.223297,94.655823 409.223297,118.777542 
	C439.402100,118.777542 468.813751,118.777542 498.518188,118.777542 
	C498.518188,112.959641 498.518188,107.404579 498.518188,101.173782 
	C474.578613,101.173782 450.889862,101.173782 427.237488,101.173782 
	C427.237488,79.445801 427.237488,58.394955 427.237488,36.723083 
	C451.130585,36.723083 474.661987,36.723083 498.261749,36.723083 
	C498.261749,30.523605 498.261749,24.956142 498.261749,19.288288 
	C468.506348,19.288288 439.131256,19.288288 409.223267,19.288288 
	C409.223267,28.257206 409.223267,36.878586 409.223297,46.499962 
M602.476257,18.953588 
	C588.815918,18.951235 575.155334,18.904772 561.495239,18.958084 
	C545.677795,19.019814 531.493469,23.179623 521.068359,35.962276 
	C512.153931,46.892475 509.722839,59.627846 510.679474,73.444893 
	C512.487488,99.559021 532.899414,118.998184 558.988770,119.029472 
	C575.314575,119.049057 591.640320,119.034798 607.966125,119.016487 
	C609.576477,119.014679 611.186707,118.878120 612.871826,118.800667 
	C612.871826,112.824966 612.871826,107.271439 612.871826,101.306404 
	C610.730652,101.306404 608.928223,101.305962 607.125793,101.306473 
	C591.133484,101.311035 575.140564,101.400627 559.148926,101.298065 
	C540.857910,101.180756 528.089355,87.664719 528.172668,68.712158 
	C528.254700,50.045006 541.060303,36.932354 559.317749,36.891720 
	C575.310303,36.856133 591.302917,36.887951 607.295532,36.889927 
	C609.080872,36.890148 610.866211,36.889957 612.802124,36.889957 
	C612.802124,30.652624 612.802124,24.960915 612.802124,18.953579 
	C609.419861,18.953579 606.442566,18.953579 602.476257,18.953588 
M329.892731,76.500000 
	C329.892731,57.428837 329.892731,38.357674 329.892731,19.252316 
	C323.639221,19.252316 318.225006,19.252316 312.591522,19.252316 
	C312.591522,52.593945 312.591522,85.614487 312.591522,118.671074 
	C340.846649,118.671074 368.720917,118.671074 396.641907,118.671074 
	C396.641907,112.758995 396.641907,107.223236 396.641907,101.061996 
	C374.219299,101.061996 352.192627,101.061996 329.892700,101.061996 
	C329.892700,92.786713 329.892700,85.143349 329.892731,76.500000 
M500.282257,161.985031 
	C503.139832,169.876801 509.334229,172.616730 517.111389,172.711456 
	C524.771973,172.804779 532.434692,172.727066 540.096436,172.721695 
	C543.959045,172.718994 547.440430,173.651306 547.318726,178.301071 
	C547.201538,182.775620 543.803894,183.878952 539.928345,183.880768 
	C528.435669,183.886169 516.942932,183.877335 505.450287,183.903336 
	C503.867432,183.906921 502.284973,184.076248 500.674561,184.170456 
	C500.674561,188.085449 500.674561,191.498367 500.674561,194.983353 
	C515.752991,194.983353 530.541809,195.356430 545.296570,194.810364 
	C551.719299,194.572662 556.237000,190.445587 557.903870,183.796799 
	C560.718811,172.568985 555.189880,164.387039 543.635437,163.657547 
	C535.504944,163.144211 527.321716,163.479568 519.162415,163.402771 
	C513.769409,163.352020 511.377472,161.590057 511.575958,157.758698 
	C511.824432,152.961761 515.203308,152.409500 518.992859,152.416656 
	C529.486206,152.436478 539.979614,152.438614 550.472839,152.408508 
	C552.206909,152.403534 553.940430,152.200623 555.504028,152.100128 
	C555.504028,148.069733 555.504028,144.655075 555.504028,140.901001 
	C542.177368,140.901001 529.203064,140.669083 516.240967,140.967667 
	C503.821991,141.253754 497.949738,148.888535 500.282257,161.985031 
M598.243530,169.599579 
	C598.243530,166.546417 598.243530,163.493240 598.243530,159.433014 
	C600.175232,161.149979 601.195007,161.972717 602.119690,162.891098 
	C612.027954,172.731583 621.895447,182.613205 631.837341,192.419510 
	C634.195679,194.745697 637.113464,197.967865 640.346924,195.535767 
	C642.518127,193.902634 644.019592,190.071213 644.093689,187.179062 
	C644.460449,172.861099 644.261169,158.528381 644.231995,144.200928 
	C644.229431,142.926041 644.015869,141.651566 643.894470,140.312836 
	C640.183167,140.312836 636.811340,140.312836 632.869629,140.312836 
	C632.869629,152.210114 632.869629,163.725189 632.869629,176.306122 
	C621.238586,164.936111 610.572754,154.248917 599.541687,143.953094 
	C597.415039,141.968231 593.719116,140.321686 590.991821,140.636871 
	C586.854492,141.115005 587.169495,145.430298 587.159058,148.739822 
	C587.113831,163.067200 587.133179,177.394791 587.155029,191.722275 
	C587.156738,192.820877 587.360718,193.919205 587.464172,194.952789 
	C591.212402,194.952789 594.574036,194.952789 598.242188,194.952789 
	C598.242188,186.530029 598.242188,178.549484 598.243530,169.599579 
M461.683533,140.497284 
	C457.395660,138.910660 455.178375,141.469833 453.271393,144.682663 
	C447.930084,153.681610 442.569641,162.669189 437.236511,171.672974 
	C432.712494,179.310760 428.216034,186.964859 423.237579,195.408524 
	C425.667297,195.408524 427.143127,195.225021 428.558044,195.440857 
	C434.146942,196.293396 437.595276,194.369858 440.315857,189.043777 
	C445.221680,179.439575 451.118652,170.344574 456.492249,160.974197 
	C457.730927,158.814255 458.519012,157.383957 460.424377,160.449539 
	C462.985962,164.570786 465.774658,168.550842 468.662537,172.886734 
	C454.412628,175.598618 454.412628,175.598618 452.646973,182.606827 
	C456.367859,182.606827 460.060699,183.078415 463.586639,182.511658 
	C471.693909,181.208542 476.876648,184.195068 479.803070,191.817383 
	C480.358185,193.263275 482.108093,195.047104 483.492310,195.224197 
	C487.201080,195.698685 491.010590,195.385986 495.582703,195.385986 
	C494.230377,192.901611 493.362640,191.173477 492.375946,189.516159 
	C485.321075,177.666245 478.309387,165.789719 471.136261,154.011627 
	C468.399475,149.517914 465.274994,145.260300 461.683533,140.497284 
M382.153198,171.482834 
	C382.153198,165.237717 382.153198,158.992599 382.153198,152.317230 
	C395.031128,152.317230 407.131195,152.317230 419.413605,152.317230 
	C419.413605,148.311066 419.413605,144.765015 419.413605,141.177521 
	C403.106995,141.177521 387.185333,141.177521 371.129791,141.177521 
	C371.129791,159.351364 371.129791,177.226578 371.129791,195.049072 
	C387.433563,195.049072 403.353333,195.049072 419.536041,195.049072 
	C419.536041,191.316864 419.536041,187.902496 419.536041,183.911560 
	C407.100006,183.911560 394.876587,183.911560 382.153229,183.911560 
	C382.153229,179.725586 382.153229,176.099121 382.153198,171.482834 
M477.498566,60.804550 
	C464.916687,60.804550 452.334808,60.804550 439.565125,60.804550 
	C439.565125,66.114159 439.565125,70.808693 439.565125,75.533768 
	C458.125000,75.533768 476.296814,75.533768 494.580139,75.533768 
	C494.580139,70.552803 494.580139,65.977493 494.580139,60.805157 
	C489.031830,60.805157 483.764832,60.805157 477.498566,60.804550 
M272.499817,75.931244 
	C279.417358,75.931244 286.334930,75.931244 293.365784,75.931244 
	C293.365784,70.525597 293.365784,65.829041 293.365784,61.124374 
	C274.907562,61.124374 256.863342,61.124374 238.727402,61.124374 
	C238.727402,66.171799 238.727402,70.891281 238.727402,75.929703 
	C249.914902,75.929703 260.707428,75.929703 272.499817,75.931244 
M417.716370,167.573395 
	C418.187195,164.379562 416.971527,163.079102 413.607452,163.266449 
	C409.142487,163.515106 404.653229,163.326889 400.174408,163.326660 
	C396.464203,163.326477 392.753998,163.326630 389.022583,163.326630 
	C388.937103,165.166367 388.979126,166.001907 388.847443,166.809097 
	C388.076691,171.533890 389.886169,173.227921 394.766327,172.886734 
	C400.873993,172.459702 407.040405,172.625504 413.169678,172.852829 
	C416.545044,172.978012 418.249969,172.033234 417.716370,167.573395 
z"/>
<path fill="#21394F" opacity="1.000000" stroke="none" 
	d="
M251.021088,3.066038 
	C198.989655,3.083228 146.958206,3.100415 94.213760,3.102690 
	C93.332817,3.147537 93.164879,3.207297 92.996948,3.267056 
	C91.579094,3.176793 90.161247,3.086530 88.391846,2.672539 
	C88.026871,1.899207 88.013435,1.449604 88.000000,1.000000 
	C142.354233,1.000000 196.708450,1.000000 251.483749,1.293709 
	C251.610245,2.080290 251.315674,2.573162 251.021088,3.066038 
z"/>
<path fill="#DFE3E6" opacity="1.000000" stroke="none" 
	d="
M251.299225,3.366920 
	C251.315674,2.573162 251.610245,2.080290 251.952408,1.293709 
	C255.030594,1.000000 258.061188,1.000000 261.545898,1.000001 
	C261.093262,2.004530 260.280792,3.737648 259.261169,3.869520 
	C256.750610,4.194222 254.144852,3.783064 251.299225,3.366920 
z"/>
<path fill="#E6E6E7" opacity="1.000000" stroke="none" 
	d="
M87.666672,1.000000 
	C88.013435,1.449604 88.026871,1.899207 87.965256,2.695925 
	C87.278984,2.575356 86.667747,2.107671 86.028259,1.319993 
	C86.444443,1.000000 86.888893,1.000000 87.666672,1.000000 
z"/>
<path fill="#E9E9E8" opacity="1.000000" stroke="none" 
	d="
M799.500000,201.000000 
	C799.089294,200.669052 799.273682,200.404282 799.776550,200.102844 
	C800.000000,200.333328 800.000000,200.666672 799.500000,201.000000 
z"/>
<path fill="#E9E9E8" opacity="1.000000" stroke="none" 
	d="
M1.000000,200.500000 
	C1.330757,200.089767 1.595656,200.274124 1.897350,200.776550 
	C1.666667,201.000000 1.333333,201.000000 1.000000,200.500000 
z"/>
<path fill="#DFE3E6" opacity="1.000000" stroke="none" 
	d="
M800.000000,1.500000 
	C799.670593,1.908285 799.406494,1.723302 799.103882,1.222526 
	C799.333313,1.000000 799.666687,1.000000 800.000000,1.500000 
z"/>
<path fill="#E6E6E7" opacity="1.000000" stroke="none" 
	d="
M1.500000,1.000000 
	C1.910204,1.330626 1.725757,1.595282 1.223330,1.896984 
	C1.000000,1.666667 1.000000,1.333333 1.500000,1.000000 
z"/>
<path fill="#0B2D4F" opacity="1.000000" stroke="none" 
	d="
M167.690216,60.980736 
	C181.973557,62.979603 189.818924,69.032715 192.476608,79.764580 
	C195.944382,93.767487 192.207275,107.352867 181.898560,113.679504 
	C177.149490,116.594086 171.073776,118.659409 165.550583,118.775368 
	C140.236588,119.306831 114.905258,119.014908 89.580162,119.000870 
	C88.952324,119.000519 88.324600,118.794273 87.444344,118.639732 
	C87.444344,113.059723 87.444344,107.621544 87.444344,101.314743 
	C89.300087,101.314743 91.208839,101.315033 93.117584,101.314697 
	C116.276917,101.310585 139.436447,101.361671 162.595474,101.275528 
	C172.122269,101.240097 177.264206,95.832848 176.506378,87.038643 
	C175.875244,79.714630 171.604614,76.014000 163.179810,75.950943 
	C148.351974,75.839966 133.516678,76.156487 118.697311,75.784256 
	C113.305733,75.648842 107.664124,74.832664 102.636169,72.974968 
	C90.580055,68.520554 84.620659,57.032288 86.236176,43.113693 
	C87.684418,30.636255 96.132858,21.824423 108.729729,19.949360 
	C112.831978,19.338734 117.012604,19.001719 121.159241,18.984457 
	C143.301895,18.892273 165.445114,18.941006 188.038177,18.941006 
	C188.038177,24.941990 188.038177,30.632193 188.038177,36.885635 
	C186.137100,36.885635 184.357742,36.885651 182.578400,36.885632 
	C160.751968,36.885414 138.925354,36.832958 117.099182,36.908138 
	C106.956627,36.943069 101.337585,45.315090 105.367142,54.221607 
	C107.777153,59.548462 112.426819,60.823792 117.746780,60.818432 
	C132.075562,60.803993 146.404373,60.812977 160.733170,60.828262 
	C162.897827,60.830574 165.062393,60.916355 167.690216,60.980736 
z"/>
<path fill="#0D2E50" opacity="1.000000" stroke="none" 
	d="
M409.223267,45.999962 
	C409.223267,36.878586 409.223267,28.257206 409.223267,19.288288 
	C439.131256,19.288288 468.506348,19.288288 498.261749,19.288288 
	C498.261749,24.956142 498.261749,30.523605 498.261749,36.723083 
	C474.661987,36.723083 451.130585,36.723083 427.237488,36.723083 
	C427.237488,58.394955 427.237488,79.445801 427.237488,101.173782 
	C450.889862,101.173782 474.578613,101.173782 498.518188,101.173782 
	C498.518188,107.404579 498.518188,112.959641 498.518188,118.777542 
	C468.813751,118.777542 439.402100,118.777542 409.223297,118.777542 
	C409.223297,94.655823 409.223297,70.577896 409.223267,45.999962 
z"/>
<path fill="#0B2C4F" opacity="1.000000" stroke="none" 
	d="
M602.970703,18.953583 
	C606.442566,18.953579 609.419861,18.953579 612.802124,18.953579 
	C612.802124,24.960915 612.802124,30.652624 612.802124,36.889957 
	C610.866211,36.889957 609.080872,36.890148 607.295532,36.889927 
	C591.302917,36.887951 575.310303,36.856133 559.317749,36.891720 
	C541.060303,36.932354 528.254700,50.045006 528.172668,68.712158 
	C528.089355,87.664719 540.857910,101.180756 559.148926,101.298065 
	C575.140564,101.400627 591.133484,101.311035 607.125793,101.306473 
	C608.928223,101.305962 610.730652,101.306404 612.871826,101.306404 
	C612.871826,107.271439 612.871826,112.824966 612.871826,118.800667 
	C611.186707,118.878120 609.576477,119.014679 607.966125,119.016487 
	C591.640320,119.034798 575.314575,119.049057 558.988770,119.029472 
	C532.899414,118.998184 512.487488,99.559021 510.679474,73.444893 
	C509.722839,59.627846 512.153931,46.892475 521.068359,35.962276 
	C531.493469,23.179623 545.677795,19.019814 561.495239,18.958084 
	C575.155334,18.904772 588.815918,18.951235 602.970703,18.953583 
z"/>
<path fill="#092B4E" opacity="1.000000" stroke="none" 
	d="
M292.026550,19.229029 
	C292.768402,19.152447 293.510223,19.075865 294.628632,19.518139 
	C296.658905,25.856630 297.089172,31.525152 292.955780,36.630016 
	C291.905243,36.701462 290.854736,36.772911 289.286316,36.374477 
	C288.027802,35.619827 287.288025,35.089024 286.546478,35.086586 
	C271.423523,35.036823 256.300140,35.015270 241.177673,35.114292 
	C240.101944,35.121334 239.032578,36.102272 237.960251,36.630367 
	C236.908936,36.700626 235.857605,36.770885 234.317581,36.405231 
	C231.873886,36.193184 229.918900,36.417049 227.963913,36.640923 
	C227.222427,38.202950 225.859558,39.756138 225.837204,41.328400 
	C225.648972,54.562943 225.706131,67.800980 225.241592,81.652374 
	C225.027618,87.862366 225.261536,93.457954 225.495453,99.053543 
	C226.713104,99.818047 227.930771,100.582550 229.714294,101.791634 
	C232.043961,102.476379 233.807190,102.920395 235.571655,102.925293 
	C253.889008,102.976234 272.206879,103.010643 290.523834,102.909492 
	C294.079254,102.889854 296.357635,103.533157 296.074432,107.793854 
	C295.831940,111.442299 295.988770,115.117302 295.968994,118.780563 
	C267.627930,118.850037 239.286850,118.919510 210.477020,118.440201 
	C209.986908,112.324005 210.062180,106.753387 209.877655,101.191376 
	C209.830307,99.763695 208.963425,98.363205 208.473038,96.950226 
	C208.398331,91.618614 208.323624,86.287003 208.705124,80.347534 
	C209.414612,79.153503 209.887268,78.568031 209.889114,77.981079 
	C209.936493,62.902237 209.961151,47.823101 209.877975,32.744629 
	C209.872833,31.810202 208.952347,30.880825 208.457748,29.949099 
	C208.389084,29.523767 208.320404,29.098434 208.692413,28.218365 
	C209.434662,24.918976 209.736237,22.074326 210.037811,19.229675 
	C229.417404,19.135818 248.796967,19.029654 268.176636,18.954893 
	C274.805115,18.929321 281.433899,18.982489 288.573242,19.422050 
	C290.064789,19.639288 291.045685,19.434158 292.026550,19.229029 
z"/>
<path fill="#0C2E50" opacity="1.000000" stroke="none" 
	d="
M329.892700,76.999992 
	C329.892700,85.143349 329.892700,92.786713 329.892700,101.061996 
	C352.192627,101.061996 374.219299,101.061996 396.641907,101.061996 
	C396.641907,107.223236 396.641907,112.758995 396.641907,118.671074 
	C368.720917,118.671074 340.846649,118.671074 312.591522,118.671074 
	C312.591522,85.614487 312.591522,52.593945 312.591522,19.252316 
	C318.225006,19.252316 323.639221,19.252316 329.892731,19.252316 
	C329.892731,38.357674 329.892731,57.428837 329.892700,76.999992 
z"/>
<path fill="#0C2E51" opacity="1.000000" stroke="none" 
	d="
M711.004211,36.546860 
	C710.549805,36.639458 710.095459,36.732059 709.183228,36.356163 
	C706.153931,36.112915 703.582397,36.338173 701.010925,36.563431 
	C697.298340,36.649857 693.585754,36.736282 689.414978,36.325783 
	C688.595459,35.415321 688.234192,35.001789 687.872925,34.588272 
	C687.579224,35.244370 687.285522,35.900448 686.991821,36.556522 
	C683.716370,36.748512 680.440979,36.940502 676.591797,37.166122 
	C676.591797,64.463943 676.591797,91.520958 676.591797,118.984909 
	C671.210876,118.984909 666.416931,118.984909 661.272339,118.336441 
	C660.948547,92.969704 661.007568,68.251312 660.925781,43.533390 
	C660.920654,41.976837 659.817078,40.423916 659.224548,38.869293 
	C657.748779,38.212318 656.283081,37.014503 654.795532,36.986599 
	C645.498474,36.812195 636.183838,36.610104 626.901184,37.015888 
	C621.925476,37.233398 620.408203,35.500267 621.032532,30.840351 
	C621.338867,28.553999 621.123779,26.197786 621.661316,23.414776 
	C623.510986,21.745508 624.843994,20.534655 626.177002,19.323793 
	C630.768738,19.228357 635.360474,19.132929 640.474976,19.623116 
	C641.861938,20.797935 642.718933,21.886513 643.591553,21.899212 
	C652.485107,22.028625 661.382935,22.060671 670.274170,21.869402 
	C671.192078,21.849655 672.075134,20.207003 672.974365,19.317387 
	C673.686523,19.228794 674.398621,19.140203 675.681702,19.599300 
	C676.841858,20.415426 677.429504,20.914049 678.020508,20.917948 
	C687.665466,20.981581 697.311523,21.036926 706.955383,20.923491 
	C708.058594,20.910511 709.149780,19.874252 710.246521,19.312443 
	C710.652466,19.226229 711.058411,19.140024 711.758911,19.642263 
	C711.703674,25.669426 711.353943,31.108145 711.004211,36.546860 
z"/>
<path fill="#0F2F50" opacity="1.000000" stroke="none" 
	d="
M500.180908,161.605392 
	C497.949738,148.888535 503.821991,141.253754 516.240967,140.967667 
	C529.203064,140.669083 542.177368,140.901001 555.504028,140.901001 
	C555.504028,144.655075 555.504028,148.069733 555.504028,152.100128 
	C553.940430,152.200623 552.206909,152.403534 550.472839,152.408508 
	C539.979614,152.438614 529.486206,152.436478 518.992859,152.416656 
	C515.203308,152.409500 511.824432,152.961761 511.575958,157.758698 
	C511.377472,161.590057 513.769409,163.352020 519.162415,163.402771 
	C527.321716,163.479568 535.504944,163.144211 543.635437,163.657547 
	C555.189880,164.387039 560.718811,172.568985 557.903870,183.796799 
	C556.237000,190.445587 551.719299,194.572662 545.296570,194.810364 
	C530.541809,195.356430 515.752991,194.983353 500.674561,194.983353 
	C500.674561,191.498367 500.674561,188.085449 500.674561,184.170456 
	C502.284973,184.076248 503.867432,183.906921 505.450287,183.903336 
	C516.942932,183.877335 528.435669,183.886169 539.928345,183.880768 
	C543.803894,183.878952 547.201538,182.775620 547.318726,178.301071 
	C547.440430,173.651306 543.959045,172.718994 540.096436,172.721695 
	C532.434692,172.727066 524.771973,172.804779 517.111389,172.711456 
	C509.334229,172.616730 503.139832,169.876801 500.180908,161.605392 
z"/>
<path fill="#AC8F3C" opacity="1.000000" stroke="none" 
	d="
M226.763397,161.956985 
	C226.812454,160.910583 226.861511,159.864197 226.952148,157.973724 
	C227.065598,151.791336 227.137451,146.453018 227.209290,141.114685 
	C227.209290,141.114685 227.621765,141.025543 228.261093,140.988037 
	C243.628296,141.135010 258.356171,141.319473 273.084045,141.503952 
	C273.500336,141.658371 273.916595,141.812805 274.861267,142.248352 
	C277.594452,144.013626 279.799286,145.497742 282.004120,146.981873 
	C282.004120,146.981873 281.997559,147.000946 282.055939,147.356995 
	C283.579437,153.496735 285.044556,159.280426 286.509674,165.064117 
	C286.355286,165.486130 286.200897,165.908157 285.783447,166.887390 
	C284.655151,169.617767 283.789825,171.790924 282.924500,173.964081 
	C282.680328,174.183456 282.436188,174.402832 281.837524,174.963516 
	C281.156433,175.804581 280.829773,176.304306 280.503143,176.804047 
	C280.503143,176.804047 280.211914,176.813339 279.763367,176.997833 
	C273.658783,180.956497 278.948029,182.141037 280.952148,184.102829 
	C281.741516,185.005066 282.530914,185.907288 283.723694,187.240692 
	C285.723999,189.167557 287.320953,190.663239 288.917877,192.158920 
	C288.980713,192.494385 289.160797,192.745850 289.655212,193.401321 
	C283.851105,195.959930 277.956360,196.485168 272.359619,192.684433 
	C272.359619,192.684433 272.165771,192.787262 272.159851,192.391907 
	C270.151031,189.641052 268.339935,187.077591 266.083557,184.996994 
	C264.334808,183.384506 262.029449,182.375687 259.971527,181.098511 
	C259.230713,181.037918 258.489929,180.977295 256.945129,180.877106 
	C252.448685,180.531631 248.756241,180.225723 245.063782,179.919830 
	C245.063782,179.919815 244.999390,179.969498 245.089706,179.524597 
	C245.241257,176.436523 245.302505,173.793350 245.363754,171.150177 
	C245.363754,171.150177 245.715286,171.070999 246.311096,171.030029 
	C253.067719,170.980072 259.228912,171.009460 265.389282,170.951752 
	C272.135437,170.888565 275.107239,168.045364 275.159027,161.731400 
	C275.209869,155.535309 272.144836,152.374832 265.549988,152.238525 
	C258.392975,152.090591 251.219696,152.432465 244.074799,152.101364 
	C239.737762,151.900375 238.211731,153.232422 238.301926,157.675705 
	C238.555344,170.158524 238.408569,182.649475 238.419632,195.137207 
	C238.419632,195.137207 238.202774,195.152863 237.700562,195.184479 
	C233.822556,195.112778 230.446777,195.009460 227.070984,194.906158 
	C227.070984,194.906174 227.007202,194.990524 227.069977,194.583679 
	C227.008606,193.436172 226.884491,192.695511 226.760361,191.954834 
	C226.818390,187.288376 226.876434,182.621918 226.971161,177.041443 
	C226.926361,171.403931 226.844879,166.680466 226.763397,161.956985 
z"/>
<path fill="#0E2E4E" opacity="1.000000" stroke="none" 
	d="
M598.242859,170.084259 
	C598.242188,178.549484 598.242188,186.530029 598.242188,194.952789 
	C594.574036,194.952789 591.212402,194.952789 587.464172,194.952789 
	C587.360718,193.919205 587.156738,192.820877 587.155029,191.722275 
	C587.133179,177.394791 587.113831,163.067200 587.159058,148.739822 
	C587.169495,145.430298 586.854492,141.115005 590.991821,140.636871 
	C593.719116,140.321686 597.415039,141.968231 599.541687,143.953094 
	C610.572754,154.248917 621.238586,164.936111 632.869629,176.306122 
	C632.869629,163.725189 632.869629,152.210114 632.869629,140.312836 
	C636.811340,140.312836 640.183167,140.312836 643.894470,140.312836 
	C644.015869,141.651566 644.229431,142.926041 644.231995,144.200928 
	C644.261169,158.528381 644.460449,172.861099 644.093689,187.179062 
	C644.019592,190.071213 642.518127,193.902634 640.346924,195.535767 
	C637.113464,197.967865 634.195679,194.745697 631.837341,192.419510 
	C621.895447,182.613205 612.027954,172.731583 602.119690,162.891098 
	C601.195007,161.972717 600.175232,161.149979 598.243530,159.433014 
	C598.243530,163.493240 598.243530,166.546417 598.242859,170.084259 
z"/>
<path fill="#0E2E4F" opacity="1.000000" stroke="none" 
	d="
M668.219116,193.388199 
	C668.219116,193.388199 668.128357,193.373367 667.923523,193.033707 
	C666.150146,192.129379 664.581543,191.564697 663.013000,191.000031 
	C662.383728,190.654083 661.754517,190.308136 660.994080,189.359070 
	C659.948181,188.157120 659.033386,187.558289 658.118652,186.959457 
	C649.741150,178.098495 648.871094,167.614517 652.770142,156.852600 
	C656.643677,146.160919 665.268188,141.204315 676.449158,140.960541 
	C686.393433,140.743744 696.346130,140.915054 706.615723,140.915054 
	C706.615723,144.810303 706.615723,148.231430 706.615723,152.417831 
	C700.015320,152.417831 693.420837,152.417130 686.826294,152.418182 
	C684.161865,152.418594 681.496887,152.388153 678.833130,152.431854 
	C670.811157,152.563431 665.334717,156.084808 663.203796,162.441879 
	C660.706177,169.892822 662.978455,176.934479 669.815430,182.364349 
	C671.053467,183.148605 671.922668,183.356323 672.791809,183.564026 
	C673.074890,183.393982 673.363281,183.384369 673.888794,183.872986 
	C674.413330,184.136368 674.706055,184.061996 674.998718,183.987625 
	C682.737732,183.832977 690.476807,183.678314 698.711914,183.189819 
	C699.284790,182.750504 699.447937,182.581940 699.424500,182.549881 
	C699.279419,182.351562 699.092468,182.183929 698.919373,182.006119 
	C698.870300,180.287521 698.821228,178.568939 699.157593,176.273590 
	C699.493408,174.545563 699.482056,172.391403 699.388733,172.387848 
	C695.921875,172.255844 692.447388,172.322662 688.973999,172.362488 
	C686.276917,172.457230 683.579773,172.551987 680.334412,172.214600 
	C678.584900,171.516296 677.383728,171.250137 676.182495,170.983978 
	C676.110413,169.599869 676.038330,168.215744 676.382202,166.380096 
	C677.558350,165.197174 678.318481,164.465790 679.078674,163.734406 
	C687.388062,163.654846 695.697510,163.575287 704.641968,163.908844 
	C706.788879,164.885345 708.300720,165.448746 709.812622,166.012146 
	C709.890442,167.079910 709.968262,168.147659 709.601379,169.672943 
	C709.370911,171.424149 709.585144,172.717834 709.799438,174.011505 
	C709.878601,176.054367 709.957703,178.097229 709.541016,180.675262 
	C708.704834,183.399948 707.942932,185.622482 708.111145,187.772232 
	C708.475037,192.422623 706.962036,194.425262 702.013367,194.097305 
	C696.422241,193.726730 690.784973,193.908157 685.172852,194.050842 
	C681.787903,194.136902 678.412720,194.606064 675.033142,194.903091 
	C674.569885,194.952042 674.106689,195.000992 673.210449,194.516678 
	C671.257996,193.785004 669.738586,193.586609 668.219116,193.388199 
z"/>
<path fill="#102F50" opacity="1.000000" stroke="none" 
	d="
M462.005371,140.696182 
	C465.274994,145.260300 468.399475,149.517914 471.136261,154.011627 
	C478.309387,165.789719 485.321075,177.666245 492.375946,189.516159 
	C493.362640,191.173477 494.230377,192.901611 495.582703,195.385986 
	C491.010590,195.385986 487.201080,195.698685 483.492310,195.224197 
	C482.108093,195.047104 480.358185,193.263275 479.803070,191.817383 
	C476.876648,184.195068 471.693909,181.208542 463.586639,182.511658 
	C460.060699,183.078415 456.367859,182.606827 452.646973,182.606827 
	C454.412628,175.598618 454.412628,175.598618 468.662537,172.886734 
	C465.774658,168.550842 462.985962,164.570786 460.424377,160.449539 
	C458.519012,157.383957 457.730927,158.814255 456.492249,160.974197 
	C451.118652,170.344574 445.221680,179.439575 440.315857,189.043777 
	C437.595276,194.369858 434.146942,196.293396 428.558044,195.440857 
	C427.143127,195.225021 425.667297,195.408524 423.237579,195.408524 
	C428.216034,186.964859 432.712494,179.310760 437.236511,171.672974 
	C442.569641,162.669189 447.930084,153.681610 453.271393,144.682663 
	C455.178375,141.469833 457.395660,138.910660 462.005371,140.696182 
z"/>
<path fill="#0A2B4C" opacity="1.000000" stroke="none" 
	d="
M382.153198,171.977753 
	C382.153229,176.099121 382.153229,179.725586 382.153229,183.911560 
	C394.876587,183.911560 407.100006,183.911560 419.536041,183.911560 
	C419.536041,187.902496 419.536041,191.316864 419.536041,195.049072 
	C403.353333,195.049072 387.433563,195.049072 371.129791,195.049072 
	C371.129791,177.226578 371.129791,159.351364 371.129791,141.177521 
	C387.185333,141.177521 403.106995,141.177521 419.413605,141.177521 
	C419.413605,144.765015 419.413605,148.311066 419.413605,152.317230 
	C407.131195,152.317230 395.031128,152.317230 382.153198,152.317230 
	C382.153198,158.992599 382.153198,165.237717 382.153198,171.977753 
z"/>
<path fill="#AC8F3B" opacity="1.000000" stroke="none" 
	d="
M181.002655,164.004181 
	C181.002640,164.004181 180.788879,164.239029 180.476151,164.561554 
	C179.044250,166.902039 177.925079,168.920013 176.805908,170.938004 
	C176.805908,170.938004 176.609055,171.132645 176.391693,171.450317 
	C176.050430,172.140411 175.926544,172.512817 175.802658,172.885239 
	C175.802658,172.885239 175.960907,172.923767 175.605011,173.054016 
	C173.831894,175.792633 172.414673,178.401031 170.997452,181.009415 
	C170.997452,181.009415 170.763565,181.210709 170.473267,181.580200 
	C168.196350,185.185867 166.206604,188.420135 164.223953,191.658737 
	C162.328751,194.754471 153.491455,196.778458 150.575836,194.644562 
	C150.148346,194.331680 150.379395,193.119019 150.305740,192.322678 
	C150.305740,192.322678 150.130737,192.313889 150.522293,192.168762 
	C152.982269,188.378876 155.050705,184.734131 157.119125,181.089386 
	C157.119125,181.089386 157.039093,180.988785 157.371765,180.895248 
	C160.119003,176.529099 162.533554,172.256485 164.948120,167.983871 
	C164.948120,167.983871 165.158081,167.717194 165.491928,167.409698 
	C166.914856,165.090149 168.003937,163.078125 169.093018,161.066101 
	C169.093018,161.066101 169.015869,160.996017 169.344528,160.881256 
	C171.837784,156.871490 174.002396,152.976486 176.166992,149.081467 
	C176.775894,148.270462 177.384796,147.459473 178.331604,146.178741 
	C179.218140,144.581070 179.766785,143.453125 180.315430,142.325180 
	C180.315430,142.325180 180.321426,142.246368 180.555420,142.178833 
	C180.992996,141.801086 181.196594,141.490860 181.400192,141.180649 
	C181.400192,141.180649 181.737061,141.081970 182.215668,140.936218 
	C184.133514,140.511414 185.572754,140.232376 187.011978,139.953339 
	C187.821808,140.559006 188.631622,141.164658 189.764404,142.199799 
	C190.656128,143.221970 191.224899,143.814682 191.793655,144.407379 
	C192.120911,145.113007 192.448166,145.818634 192.961823,147.071823 
	C194.037186,148.861832 194.926163,150.104263 195.815140,151.346710 
	C195.815140,151.346710 195.854660,151.700073 195.979889,152.185242 
	C197.660492,154.925552 199.215897,157.180710 200.771301,159.435852 
	C200.771301,159.435852 200.764862,159.753052 200.882019,160.223877 
	C201.913254,161.959381 202.827301,163.224045 203.741364,164.488708 
	C203.917572,164.942230 204.093781,165.395752 204.515793,166.368011 
	C208.837753,173.595291 212.913879,180.303833 216.990021,187.012375 
	C216.990021,187.012375 217.000000,187.000000 217.026611,187.365067 
	C218.280197,190.221741 219.507141,192.713348 220.734085,195.204956 
	C220.734085,195.204956 220.383102,195.256714 219.799347,195.244812 
	C211.527145,196.313110 205.261429,194.810013 202.459167,186.438583 
	C201.305099,182.990906 198.654327,181.997086 195.042252,182.194870 
	C189.658569,182.489655 184.246811,182.271332 178.185577,182.271332 
	C179.728424,179.012375 180.902130,176.533173 182.075836,174.053970 
	C182.075821,174.053970 182.000198,174.011124 182.480835,173.998016 
	C186.532898,173.984924 190.104309,173.984924 195.093735,173.984924 
	C193.124695,171.071289 192.071671,169.513123 191.018661,167.954941 
	C190.802521,167.437622 190.586380,166.920303 190.147461,165.860779 
	C188.421677,162.815125 186.918671,160.311676 184.779007,156.747803 
	C183.182678,159.815186 182.092667,161.909683 181.002655,164.004181 
z"/>
<path fill="#AB8F3A" opacity="1.000000" stroke="none" 
	d="
M104.001465,192.956070 
	C104.001465,192.956070 103.746994,192.765060 103.376083,192.491760 
	C99.756233,189.319916 96.507294,186.421371 93.258354,183.522842 
	C93.258354,183.522842 93.236290,183.218155 93.113777,182.725952 
	C92.309380,180.544495 91.593124,178.868195 90.951035,177.163956 
	C85.679077,163.171204 92.653435,145.709595 106.494034,142.899109 
	C118.922592,140.375336 132.003723,141.065216 145.394394,140.303482 
	C145.394394,145.211746 145.394394,148.664856 145.394394,152.117950 
	C145.394394,152.117950 145.169998,152.151764 144.672241,152.181854 
	C134.886612,152.203354 125.598396,152.239365 116.310944,152.171509 
	C109.348167,152.120636 100.781960,157.718231 101.127235,166.028564 
	C101.056908,166.465546 100.986572,166.902527 100.889145,167.919037 
	C100.912895,168.666016 100.963737,168.833466 101.014587,169.000931 
	C101.009224,169.442902 101.003860,169.884872 101.038391,171.010834 
	C103.179352,179.450790 108.071457,183.856491 115.253998,183.939697 
	C125.188759,184.054794 135.126724,183.892334 145.063309,183.848724 
	C145.063309,183.848740 145.080933,183.963165 145.161377,184.407166 
	C145.279526,188.274643 145.317230,191.698120 145.354935,195.121582 
	C145.354935,195.121582 145.157028,195.116287 144.652924,195.152359 
	C130.765320,194.463043 117.202881,196.955933 104.001465,192.956070 
z"/>
<path fill="#113050" opacity="1.000000" stroke="none" 
	d="
M329.382690,181.963028 
	C330.888031,182.600098 332.384613,183.763824 333.900085,183.788940 
	C343.877380,183.954239 353.858734,183.874252 364.262360,183.874252 
	C364.262360,187.662506 364.262360,191.200394 364.262360,195.082230 
	C349.051727,195.082230 333.835022,195.082230 318.361450,195.082230 
	C318.361450,177.108307 318.361450,159.367844 318.361450,141.129532 
	C321.932373,141.129532 325.344025,141.129532 328.628998,141.810486 
	C328.363495,155.195908 328.211121,167.900314 328.140961,180.605179 
	C328.138458,181.055496 328.950378,181.510315 329.382690,181.963028 
z"/>
<path fill="#0F2F4F" opacity="1.000000" stroke="none" 
	d="
M477.998169,60.804855 
	C483.764832,60.805157 489.031830,60.805157 494.580139,60.805157 
	C494.580139,65.977493 494.580139,70.552803 494.580139,75.533768 
	C476.296814,75.533768 458.125000,75.533768 439.565125,75.533768 
	C439.565125,70.808693 439.565125,66.114159 439.565125,60.804550 
	C452.334808,60.804550 464.916687,60.804550 477.998169,60.804855 
z"/>
<path fill="#0F3050" opacity="1.000000" stroke="none" 
	d="
M271.999878,75.930473 
	C260.707428,75.929703 249.914902,75.929703 238.727402,75.929703 
	C238.727402,70.891281 238.727402,66.171799 238.727402,61.124374 
	C256.863342,61.124374 274.907562,61.124374 293.365784,61.124374 
	C293.365784,65.829041 293.365784,70.525597 293.365784,75.931244 
	C286.334930,75.931244 279.417358,75.931244 271.999878,75.930473 
z"/>
<path fill="#0F2F50" opacity="1.000000" stroke="none" 
	d="
M577.419800,145.078156 
	C577.463318,160.384277 577.506897,175.690384 577.139526,191.683075 
	C574.179810,192.953415 571.630920,193.537216 569.012695,193.699188 
	C568.632935,186.090271 568.399414,178.898407 567.952515,171.719833 
	C567.853455,170.128494 567.001099,168.584061 566.495605,167.018021 
	C566.404053,165.608307 566.312439,164.198608 566.706665,162.234161 
	C567.464050,159.808121 567.830139,157.944778 567.988464,156.063950 
	C568.382935,151.377594 568.682800,146.683289 569.452148,141.974365 
	C572.950867,141.656738 575.828674,141.814301 577.419800,145.078156 
z"/>
<path fill="#203F5C" opacity="1.000000" stroke="none" 
	d="
M417.715759,168.007950 
	C418.249969,172.033234 416.545044,172.978012 413.169678,172.852829 
	C407.040405,172.625504 400.873993,172.459702 394.766327,172.886734 
	C389.886169,173.227921 388.076691,171.533890 388.847443,166.809097 
	C388.979126,166.001907 388.937103,165.166367 389.022583,163.326630 
	C392.753998,163.326630 396.464203,163.326477 400.174408,163.326660 
	C404.653229,163.326889 409.142487,163.515106 413.607452,163.266449 
	C416.971527,163.079102 418.187195,164.379562 417.715759,168.007950 
z"/>
<path fill="#F6EFD8" opacity="1.000000" stroke="none" 
	d="
M238.766327,194.969849 
	C238.408569,182.649475 238.555344,170.158524 238.301926,157.675705 
	C238.211731,153.232422 239.737762,151.900375 244.074799,152.101364 
	C251.219696,152.432465 258.392975,152.090591 265.549988,152.238525 
	C272.144836,152.374832 275.209869,155.535309 275.159027,161.731400 
	C275.107239,168.045364 272.135437,170.888565 265.389282,170.951752 
	C259.228912,171.009460 253.067719,170.980072 246.442719,170.907013 
	C247.316605,170.220642 248.637405,169.144470 249.995712,169.094818 
	C255.467636,168.894852 260.952301,169.081207 266.430023,168.990570 
	C271.007141,168.914825 272.793762,166.759079 273.125427,161.058624 
	C273.339294,157.382004 271.741608,155.101517 267.860168,154.939011 
	C259.767944,154.600220 251.674286,154.291290 243.579544,154.019699 
	C240.273773,153.908768 239.969345,156.156479 239.978180,158.715454 
	C240.013733,169.009674 240.036545,179.304367 239.957809,189.598083 
	C239.944519,191.334930 239.407867,193.067780 238.766327,194.969849 
z"/>
<path fill="#F6EFD8" opacity="1.000000" stroke="none" 
	d="
M145.720062,151.981232 
	C145.394394,148.664856 145.394394,145.211746 145.394394,140.303482 
	C132.003723,141.065216 118.922592,140.375336 106.494034,142.899109 
	C92.653435,145.709595 85.679077,163.171204 90.951035,177.163956 
	C91.593124,178.868195 92.309380,180.544495 93.012970,182.611176 
	C92.053940,182.254700 90.609299,181.732483 90.163025,180.754608 
	C84.691788,168.766006 87.044258,156.445511 95.290596,146.717010 
	C100.958496,140.030411 109.400429,139.404785 117.501930,139.082245 
	C125.292969,138.772079 133.106064,139.001587 140.909409,139.020142 
	C146.011993,139.032272 148.423157,141.801727 147.537445,146.759857 
	C147.228668,148.488419 146.553528,150.151535 145.720062,151.981232 
z"/>
<path fill="#274058" opacity="1.000000" stroke="none" 
	d="
M296.360718,118.789505 
	C295.988770,115.117302 295.831940,111.442299 296.074432,107.793854 
	C296.357635,103.533157 294.079254,102.889854 290.523834,102.909492 
	C272.206879,103.010643 253.889008,102.976234 235.571655,102.925293 
	C233.807190,102.920395 232.043961,102.476379 230.114777,101.897263 
	C250.023865,101.447632 270.098328,101.335770 290.172791,101.227936 
	C292.447174,101.215714 294.721680,101.226280 297.941010,101.226280 
	C297.517700,107.484627 297.135071,113.141533 296.360718,118.789505 
z"/>
<path fill="#082140" opacity="1.000000" stroke="none" 
	d="
M659.127686,39.274033 
	C659.817078,40.423916 660.920654,41.976837 660.925781,43.533390 
	C661.007568,68.251312 660.948547,92.969704 660.872925,118.208511 
	C660.222534,117.274635 659.102600,115.822403 659.096497,114.365532 
	C658.992798,89.470299 659.026978,64.574471 659.127686,39.274033 
z"/>
<path fill="#F6EFD8" opacity="1.000000" stroke="none" 
	d="
M181.711243,174.068314 
	C180.902130,176.533173 179.728424,179.012375 178.185577,182.271332 
	C184.246811,182.271332 189.658569,182.489655 195.042252,182.194870 
	C198.654327,181.997086 201.305099,182.990906 202.459167,186.438583 
	C205.261429,194.810013 211.527145,196.313110 219.671234,195.367493 
	C213.221054,199.772186 206.333496,198.356827 203.410065,191.677704 
	C200.008896,183.907104 193.388138,183.935242 186.578644,184.016937 
	C183.666641,184.051880 180.753860,184.022781 177.519592,184.022781 
	C176.523605,179.531784 177.917252,176.433395 181.711243,174.068314 
z"/>
<path fill="#274058" opacity="1.000000" stroke="none" 
	d="
M238.411942,36.774162 
	C239.032578,36.102272 240.101944,35.121334 241.177673,35.114292 
	C256.300140,35.015270 271.423523,35.036823 286.546478,35.086586 
	C287.288025,35.089024 288.027802,35.619827 288.903564,36.265781 
	C272.313690,36.723965 255.588669,36.820961 238.411942,36.774162 
z"/>
<path fill="#F6EFD8" opacity="1.000000" stroke="none" 
	d="
M101.469711,165.951813 
	C100.781960,157.718231 109.348167,152.120636 116.310944,152.171509 
	C125.598396,152.239365 134.886612,152.203354 144.646301,152.292297 
	C143.709595,152.908890 142.312668,153.869324 140.890549,153.908203 
	C134.597687,154.080292 128.273697,154.337219 122.005608,153.909378 
	C112.353859,153.250626 105.428604,156.625809 101.469711,165.951813 
z"/>
<path fill="#F6EFD8" opacity="1.000000" stroke="none" 
	d="
M144.947357,183.467133 
	C135.126724,183.892334 125.188759,184.054794 115.253998,183.939697 
	C108.071457,183.856491 103.179352,179.450790 101.150360,171.325714 
	C102.141968,171.954102 103.439270,172.799103 103.914215,173.975998 
	C105.765366,178.563110 110.330200,181.978806 115.276062,182.002930 
	C123.593742,182.043533 131.912399,181.962997 140.229019,182.065887 
	C141.767120,182.084900 143.297485,182.729614 144.947357,183.467133 
z"/>
<path fill="#274058" opacity="1.000000" stroke="none" 
	d="
M208.313721,30.401369 
	C208.952347,30.880825 209.872833,31.810202 209.877975,32.744629 
	C209.961151,47.823101 209.936493,62.902237 209.889114,77.981079 
	C209.887268,78.568031 209.414612,79.153503 208.814056,79.895416 
	C208.367767,63.651985 208.268738,47.252811 208.313721,30.401369 
z"/>
<path fill="#F6EFD8" opacity="1.000000" stroke="none" 
	d="
M145.726685,195.104492 
	C145.317230,191.698120 145.279526,188.274643 145.215027,184.385406 
	C146.114090,185.416275 147.103348,186.878326 147.944946,188.420944 
	C148.570938,189.568375 149.005630,190.820160 149.915634,192.174072 
	C150.379395,193.119019 150.148346,194.331680 150.575836,194.644562 
	C153.491455,196.778458 162.328751,194.754471 164.223953,191.658737 
	C166.206604,188.420135 168.196350,185.185867 170.463959,181.734207 
	C171.075562,191.949356 161.705887,199.235764 151.326843,196.598129 
	C149.569550,196.151520 147.840515,195.593796 145.726685,195.104492 
z"/>
<path fill="#213750" opacity="1.000000" stroke="none" 
	d="
M675.391968,195.090149 
	C678.412720,194.606064 681.787903,194.136902 685.172852,194.050842 
	C690.784973,193.908157 696.422241,193.726730 702.013367,194.097305 
	C706.962036,194.425262 708.475037,192.422623 708.111145,187.772232 
	C707.942932,185.622482 708.704834,183.399948 709.419189,181.098358 
	C709.793213,185.572021 709.793213,190.157745 709.793213,195.277222 
	C698.409119,195.277222 687.079956,195.277222 675.391968,195.090149 
z"/>
<path fill="#F6EFD8" opacity="1.000000" stroke="none" 
	d="
M272.978424,141.154434 
	C258.356171,141.319473 243.628296,141.135010 228.435730,140.869629 
	C228.963409,139.920013 229.962158,138.289917 230.947144,138.298187 
	C243.331909,138.402115 255.716721,138.682144 268.095490,139.096863 
	C269.705200,139.150803 271.281189,140.210876 272.978424,141.154434 
z"/>
<path fill="#082642" opacity="1.000000" stroke="none" 
	d="
M672.553467,19.190655 
	C672.075134,20.207003 671.192078,21.849655 670.274170,21.869402 
	C661.382935,22.060671 652.485107,22.028625 643.591553,21.899212 
	C642.718933,21.886513 641.861938,20.797935 640.911621,19.760677 
	C651.261292,19.229723 661.696899,19.146822 672.553467,19.190655 
z"/>
<path fill="#F6EFD8" opacity="1.000000" stroke="none" 
	d="
M104.058540,193.323898 
	C117.202881,196.955933 130.765320,194.463043 144.620438,195.245880 
	C144.532745,195.837006 143.963562,196.845810 143.415527,196.834473 
	C131.716019,196.592072 120.015846,196.306610 108.325218,195.808563 
	C106.894554,195.747604 105.517509,194.428024 104.058540,193.323898 
z"/>
<path fill="#081F38" opacity="1.000000" stroke="none" 
	d="
M329.498505,181.510284 
	C328.950378,181.510315 328.138458,181.055496 328.140961,180.605179 
	C328.211121,167.900314 328.363495,155.195908 328.823425,142.207230 
	C329.301086,154.967880 329.457703,168.012711 329.498505,181.510284 
z"/>
<path fill="#082642" opacity="1.000000" stroke="none" 
	d="
M709.847595,19.168602 
	C709.149780,19.874252 708.058594,20.910511 706.955383,20.923491 
	C697.311523,21.036926 687.665466,20.981581 678.020508,20.917948 
	C677.429504,20.914049 676.841858,20.415426 676.017639,19.743214 
	C687.004639,19.234543 698.226685,19.129646 709.847595,19.168602 
z"/>
<path fill="#0C213E" opacity="1.000000" stroke="none" 
	d="
M566.375732,167.471497 
	C567.001099,168.584061 567.853455,170.128494 567.952515,171.719833 
	C568.399414,178.898407 568.632935,186.090271 568.672241,193.700546 
	C567.731201,194.049927 567.061279,193.976120 566.391296,193.902298 
	C566.346130,185.243179 566.301025,176.584076 566.375732,167.471497 
z"/>
<path fill="#F6EFD8" opacity="1.000000" stroke="none" 
	d="
M217.007446,186.611115 
	C212.913879,180.303833 208.837753,173.595291 204.701263,166.530151 
	C206.269653,167.803375 208.347961,169.179489 209.438980,171.112762 
	C212.203781,176.011841 214.525620,181.160919 217.007446,186.611115 
z"/>
<path fill="#274058" opacity="1.000000" stroke="none" 
	d="
M293.351624,36.771713 
	C297.089172,31.525152 296.658905,25.856630 294.988190,19.632004 
	C295.852020,20.158150 297.414368,21.035580 297.492737,22.029966 
	C297.791687,25.823298 297.489716,29.659517 297.651123,33.469593 
	C297.776703,36.433559 296.446289,37.349785 293.351624,36.771713 
z"/>
<path fill="#274058" opacity="1.000000" stroke="none" 
	d="
M208.325928,97.401382 
	C208.963425,98.363205 209.830307,99.763695 209.877655,101.191376 
	C210.062180,106.753387 209.986908,112.324005 210.018478,118.346970 
	C209.390549,117.599495 208.238739,116.412018 208.201797,115.190819 
	C208.027145,109.416451 208.157303,103.632851 208.325928,97.401382 
z"/>
<path fill="#F6EFD8" opacity="1.000000" stroke="none" 
	d="
M272.277344,193.074600 
	C277.956360,196.485168 283.851105,195.959930 289.883301,193.469971 
	C292.997253,193.830383 292.261963,195.366486 290.389893,196.580139 
	C288.000153,198.129364 274.879395,196.703308 272.659637,194.828918 
	C272.345093,194.563324 272.342194,193.928635 272.277344,193.074600 
z"/>
<path fill="#0C213E" opacity="1.000000" stroke="none" 
	d="
M569.020630,141.992172 
	C568.682800,146.683289 568.382935,151.377594 567.988464,156.063950 
	C567.830139,157.944778 567.464050,159.808121 566.844849,161.829422 
	C566.414490,155.660263 566.331726,149.341125 566.673462,142.567841 
	C567.738831,142.073196 568.379761,142.032684 569.020630,141.992172 
z"/>
<path fill="#F6EFD8" opacity="1.000000" stroke="none" 
	d="
M260.011963,181.437027 
	C262.029449,182.375687 264.334808,183.384506 266.083557,184.996994 
	C268.339935,187.077591 270.151031,189.641052 272.238220,192.315155 
	C270.954620,191.985504 269.298553,191.632614 268.273773,190.632721 
	C265.394135,187.822968 262.774506,184.746704 260.011963,181.437027 
z"/>
<path fill="#F6EFD8" opacity="1.000000" stroke="none" 
	d="
M286.845520,164.904602 
	C285.044556,159.280426 283.579437,153.496735 282.065796,147.355118 
	C284.001312,149.892883 286.721405,152.554108 287.741669,155.756836 
	C288.590973,158.422867 287.444092,161.724808 286.845520,164.904602 
z"/>
<path fill="#274058" opacity="1.000000" stroke="none" 
	d="
M225.627029,98.598892 
	C225.261536,93.457954 225.027618,87.862366 225.136749,82.105927 
	C225.572723,87.344803 225.665665,92.744522 225.627029,98.598892 
z"/>
<path fill="#F6EFD8" opacity="1.000000" stroke="none" 
	d="
M226.794067,141.146179 
	C227.137451,146.453018 227.065598,151.791336 226.871857,157.587433 
	C226.186050,157.343475 225.102386,156.611496 225.141190,155.944870 
	C225.428146,151.015152 225.938629,146.098450 226.794067,141.146179 
z"/>
<path fill="#F6EFD8" opacity="1.000000" stroke="none" 
	d="
M190.994202,168.375336 
	C192.071671,169.513123 193.124695,171.071289 195.093735,173.984924 
	C190.104309,173.984924 186.532898,173.984924 182.507843,174.032104 
	C183.804520,173.389160 185.514099,172.291443 187.315399,172.111374 
	C189.604218,171.882568 191.302979,171.639984 190.994202,168.375336 
z"/>
<path fill="#F6EFD8" opacity="1.000000" stroke="none" 
	d="
M181.347137,163.957611 
	C182.092667,161.909683 183.182678,159.815186 184.779007,156.747803 
	C186.918671,160.311676 188.421677,162.815125 189.935822,165.671753 
	C188.959549,165.487259 187.530762,165.197693 187.064056,164.367371 
	C185.377197,161.366089 183.648300,162.045898 181.347137,163.957611 
z"/>
<path fill="#082642" opacity="1.000000" stroke="none" 
	d="
M711.423584,36.670273 
	C711.353943,31.108145 711.703674,25.669426 712.042114,19.787321 
	C712.736267,19.770216 714.042236,20.179705 714.054688,20.625357 
	C714.189148,25.436419 714.199341,30.256359 714.006775,35.064400 
	C713.982605,35.668739 712.597473,36.218586 711.423584,36.670273 
z"/>
<path fill="#F6EFD8" opacity="1.000000" stroke="none" 
	d="
M226.392853,162.080734 
	C226.844879,166.680466 226.926361,171.403931 226.890045,176.584595 
	C223.535583,172.246964 224.797394,167.224792 226.392853,162.080734 
z"/>
<path fill="#F6EFD8" opacity="1.000000" stroke="none" 
	d="
M175.784561,149.061432 
	C174.002396,152.976486 171.837784,156.871490 169.372681,160.925003 
	C168.625275,155.725418 171.865631,152.305573 175.784561,149.061432 
z"/>
<path fill="#F6EFD8" opacity="1.000000" stroke="none" 
	d="
M164.596497,168.023590 
	C162.533554,172.256485 160.119003,176.529099 157.399933,180.952820 
	C159.478592,176.757050 161.861725,172.410172 164.596497,168.023590 
z"/>
<path fill="#3E536E" opacity="1.000000" stroke="none" 
	d="
M569.452148,141.974365 
	C568.379761,142.032684 567.738831,142.073196 566.775879,142.118225 
	C570.919006,139.006470 577.274414,140.320984 577.598755,144.771530 
	C575.828674,141.814301 572.950867,141.656738 569.452148,141.974365 
z"/>
<path fill="#3E536E" opacity="1.000000" stroke="none" 
	d="
M566.333313,194.280899 
	C567.061279,193.976120 567.731201,194.049927 568.741638,194.122375 
	C571.630920,193.537216 574.179810,192.953415 577.059082,192.140137 
	C576.875549,193.135040 576.373779,195.406067 575.845703,195.412201 
	C572.658936,195.449097 569.466125,194.967590 566.333313,194.280899 
z"/>
<path fill="#F6EFD8" opacity="1.000000" stroke="none" 
	d="
M93.184044,183.932312 
	C96.507294,186.421371 99.756233,189.319916 103.217056,192.495911 
	C98.029961,192.470016 93.755493,188.977432 93.184044,183.932312 
z"/>
<path fill="#F6EFD8" opacity="1.000000" stroke="none" 
	d="
M156.758881,181.088303 
	C155.050705,184.734131 152.982269,188.378876 150.607788,192.149658 
	C152.334030,188.546204 154.366318,184.816711 156.758881,181.088303 
z"/>
<path fill="#213750" opacity="1.000000" stroke="none" 
	d="
M689.397217,172.524597 
	C692.447388,172.322662 695.921875,172.255844 699.388733,172.387848 
	C699.482056,172.391403 699.493408,174.545563 699.241699,175.851059 
	C697.873718,174.927261 696.976379,173.293427 695.699707,172.904404 
	C693.886169,172.351776 691.793701,172.714874 689.397217,172.524597 
z"/>
<path fill="#F6EFD8" opacity="1.000000" stroke="none" 
	d="
M245.081604,180.306824 
	C248.756241,180.225723 252.448685,180.531631 256.579468,180.957306 
	C254.015778,183.943542 248.812820,183.776245 245.081604,180.306824 
z"/>
<path fill="#F6EFD8" opacity="1.000000" stroke="none" 
	d="
M227.118225,195.307922 
	C230.446777,195.009460 233.822556,195.112778 237.660339,195.285461 
	C234.555283,198.105652 230.881210,197.551163 227.118225,195.307922 
z"/>
<path fill="#F6EFD8" opacity="1.000000" stroke="none" 
	d="
M221.036530,195.134644 
	C219.507141,192.713348 218.280197,190.221741 217.019958,187.369537 
	C221.311630,188.977051 223.152969,192.385071 221.036530,195.134644 
z"/>
<path fill="#F6EFD8" opacity="1.000000" stroke="none" 
	d="
M283.319336,173.977524 
	C283.789825,171.790924 284.655151,169.617767 285.787811,167.227142 
	C287.330750,170.026169 288.344879,172.954971 283.319336,173.977524 
z"/>
<path fill="#F6EFD8" opacity="1.000000" stroke="none" 
	d="
M171.369492,180.978027 
	C172.414673,178.401031 173.831894,175.792633 175.536011,173.010742 
	C175.458755,176.041794 175.985886,179.694931 171.369492,180.978027 
z"/>
<path fill="#082642" opacity="1.000000" stroke="none" 
	d="
M625.835938,19.183105 
	C624.843994,20.534655 623.510986,21.745508 621.814209,22.972376 
	C620.184998,18.994276 622.585449,18.757507 625.835938,19.183105 
z"/>
<path fill="#F6EFD8" opacity="1.000000" stroke="none" 
	d="
M280.969940,183.701340 
	C278.948029,182.141037 273.658783,180.956497 279.665497,177.105774 
	C280.340057,179.119415 280.663910,181.209625 280.969940,183.701340 
z"/>
<path fill="#274058" opacity="1.000000" stroke="none" 
	d="
M209.630585,19.181494 
	C209.736237,22.074326 209.434662,24.918976 208.795258,27.907627 
	C208.712753,25.078857 208.968048,22.106085 209.630585,19.181494 
z"/>
<path fill="#F6EFD8" opacity="1.000000" stroke="none" 
	d="
M200.824158,159.038025 
	C199.215897,157.180710 197.660492,154.925552 196.094208,152.321381 
	C200.315628,152.301025 199.500443,156.258469 200.824158,159.038025 
z"/>
<path fill="#082642" opacity="1.000000" stroke="none" 
	d="
M701.440002,36.688835 
	C703.582397,36.338173 706.153931,36.112915 708.855347,36.220978 
	C706.613220,36.640945 704.241150,36.727592 701.440002,36.688835 
z"/>
<path fill="#F6EFD8" opacity="1.000000" stroke="none" 
	d="
M282.012177,146.613647 
	C279.799286,145.497742 277.594452,144.013626 275.196350,142.261078 
	C278.702057,141.166397 280.998108,142.654907 282.012177,146.613647 
z"/>
<path fill="#F6EFD8" opacity="1.000000" stroke="none" 
	d="
M244.980911,171.241180 
	C245.302505,173.793350 245.241257,176.436523 245.130096,179.519974 
	C241.768799,177.260284 242.342468,174.343231 244.980911,171.241180 
z"/>
<path fill="#F6EFD8" opacity="1.000000" stroke="none" 
	d="
M168.717957,161.080200 
	C168.003937,163.078125 166.914856,165.090149 165.510071,167.240952 
	C164.715057,164.518753 165.135513,162.108505 168.717957,161.080200 
z"/>
<path fill="#F6EFD8" opacity="1.000000" stroke="none" 
	d="
M177.185440,170.928757 
	C177.925079,168.920013 179.044250,166.902039 180.467560,164.720093 
	C179.702805,166.677231 178.633881,168.798370 177.185440,170.928757 
z"/>
<path fill="#274058" opacity="1.000000" stroke="none" 
	d="
M228.381836,36.780563 
	C229.918900,36.417049 231.873886,36.193184 233.934326,36.297775 
	C232.293091,36.724224 230.546432,36.822220 228.381836,36.780563 
z"/>
<path fill="#F6EFD8" opacity="1.000000" stroke="none" 
	d="
M288.950684,191.772873 
	C287.320953,190.663239 285.723999,189.167557 283.998627,187.367432 
	C286.964111,186.861069 288.720245,188.241196 288.950684,191.772873 
z"/>
<path fill="#213750" opacity="1.000000" stroke="none" 
	d="
M709.951782,165.671158 
	C708.300720,165.448746 706.788879,164.885345 705.091797,164.028900 
	C706.634705,164.267273 708.362854,164.798721 709.951782,165.671158 
z"/>
<path fill="#F6EFD8" opacity="1.000000" stroke="none" 
	d="
M186.954987,139.608902 
	C185.572754,140.232376 184.133514,140.511414 182.328049,140.801392 
	C182.856339,137.901825 184.358521,136.929184 186.954987,139.608902 
z"/>
<path fill="#F6EFD8" opacity="1.000000" stroke="none" 
	d="
M203.818542,164.089844 
	C202.827301,163.224045 201.913254,161.959381 200.976196,160.351532 
	C201.934036,161.235901 202.914871,162.463440 203.818542,164.089844 
z"/>
<path fill="#213750" opacity="1.000000" stroke="none" 
	d="
M676.140869,171.350708 
	C677.383728,171.250137 678.584900,171.516296 679.905762,172.071289 
	C678.716736,172.145905 677.408020,171.931671 676.140869,171.350708 
z"/>
<path fill="#213750" opacity="1.000000" stroke="none" 
	d="
M709.939575,173.623718 
	C709.585144,172.717834 709.370911,171.424149 709.480591,170.059235 
	C709.896240,171.070648 709.987976,172.153290 709.939575,173.623718 
z"/>
<path fill="#213750" opacity="1.000000" stroke="none" 
	d="
M678.793762,163.588196 
	C678.318481,164.465790 677.558350,165.197174 676.469482,165.971252 
	C676.930176,165.156647 677.719543,164.299332 678.793762,163.588196 
z"/>
<path fill="#213750" opacity="1.000000" stroke="none" 
	d="
M668.463623,193.669617 
	C669.738586,193.586609 671.257996,193.785004 672.894287,194.358765 
	C671.576782,194.473083 670.142456,194.212051 668.463623,193.669617 
z"/>
<path fill="#F6EFD8" opacity="1.000000" stroke="none" 
	d="
M195.874084,150.966171 
	C194.926163,150.104263 194.037186,148.861832 193.161575,147.289795 
	C194.094299,148.168686 195.013672,149.377167 195.874084,150.966171 
z"/>
<path fill="#F6EFD8" opacity="1.000000" stroke="none" 
	d="
M179.968445,142.253021 
	C179.766785,143.453125 179.218140,144.581070 178.398834,145.876190 
	C178.625946,144.755859 179.123703,143.468369 179.968445,142.253021 
z"/>
<path fill="#213750" opacity="1.000000" stroke="none" 
	d="
M663.181091,191.312347 
	C664.581543,191.564697 666.150146,192.129379 667.878296,193.025696 
	C666.474976,192.779785 664.912048,192.202225 663.181091,191.312347 
z"/>
<path fill="#274058" opacity="1.000000" stroke="none" 
	d="
M291.659363,19.075523 
	C291.045685,19.434158 290.064789,19.639288 289.026855,19.539129 
	C289.743958,19.129900 290.518066,19.025959 291.659363,19.075523 
z"/>
<path fill="#F6EFD8" opacity="1.000000" stroke="none" 
	d="
M226.445374,192.028702 
	C226.884491,192.695511 227.008606,193.436172 227.113525,194.553741 
	C226.773026,193.987946 226.451706,193.045258 226.445374,192.028702 
z"/>
<path fill="#213750" opacity="1.000000" stroke="none" 
	d="
M658.218628,187.264709 
	C659.033386,187.558289 659.948181,188.157120 660.841919,189.130524 
	C659.986816,188.860046 659.152710,188.214996 658.218628,187.264709 
z"/>
<path fill="#213750" opacity="1.000000" stroke="none" 
	d="
M672.576294,183.324371 
	C671.922668,183.356323 671.053467,183.148605 670.086060,182.583893 
	C670.778809,182.512833 671.569763,182.798782 672.576294,183.324371 
z"/>
<path fill="#F6EFD8" opacity="1.000000" stroke="none" 
	d="
M191.835663,144.048492 
	C191.224899,143.814682 190.656128,143.221970 190.045288,142.313995 
	C190.628036,142.562347 191.252838,143.125992 191.835663,144.048492 
z"/>
<path fill="#082642" opacity="1.000000" stroke="none" 
	d="
M687.321838,36.670166 
	C687.285522,35.900448 687.579224,35.244370 687.872925,34.588272 
	C688.234192,35.001789 688.595459,35.415321 688.983582,36.192776 
	C688.557556,36.632397 688.104675,36.708103 687.321838,36.670166 
z"/>
<path fill="#F6EFD8" opacity="1.000000" stroke="none" 
	d="
M280.830444,176.766388 
	C280.829773,176.304306 281.156433,175.804581 281.767761,175.205322 
	C281.754242,175.646774 281.456024,176.187744 280.830444,176.766388 
z"/>
<path fill="#213750" opacity="1.000000" stroke="none" 
	d="
M674.765625,183.841309 
	C674.706055,184.061996 674.413330,184.136368 674.059204,184.018311 
	C674.176025,183.782227 674.354248,183.738602 674.765625,183.841309 
z"/>
<path fill="#213750" opacity="1.000000" stroke="none" 
	d="
M698.821533,182.245651 
	C699.092468,182.183929 699.279419,182.351562 699.424500,182.549881 
	C699.447937,182.581940 699.284790,182.750504 699.021729,182.923218 
	C698.798157,182.822037 698.760925,182.653610 698.821533,182.245651 
z"/>
<path fill="#F6EFD8" opacity="1.000000" stroke="none" 
	d="
M176.095490,172.750381 
	C175.926544,172.512817 176.050430,172.140411 176.414795,171.586792 
	C176.566284,171.808899 176.477295,172.212219 176.095490,172.750381 
z"/>
<path fill="#F6EFD8" opacity="1.000000" stroke="none" 
	d="
M101.188309,168.918976 
	C100.963737,168.833466 100.912895,168.666016 100.942116,168.248535 
	C101.196381,168.166443 101.388031,168.321320 101.531197,168.512497 
	C101.562836,168.554733 101.422935,168.725449 101.188309,168.918976 
z"/>
<path fill="#F6EFD8" opacity="1.000000" stroke="none" 
	d="
M181.097305,141.223145 
	C181.196594,141.490860 180.992996,141.801086 180.520721,142.197784 
	C180.432831,141.944717 180.613632,141.605179 181.097305,141.223145 
z"/>
<path fill="#DFE3E6" opacity="1.000000" stroke="none" 
	d="
M93.085297,3.420186 
	C93.164879,3.207297 93.332817,3.147537 93.751266,3.181070 
	C93.725739,3.374012 93.449699,3.473664 93.085297,3.420186 
z"/>
</svg>